<?xml version="1.0" encoding="UTF-8"?>
<!DOCTYPE svg PUBLIC "-//W3C//DTD SVG 1.1//EN" "http://www.w3.org/Graphics/SVG/1.1/DTD/svg11.dtd">
<svg xmlns="http://www.w3.org/2000/svg" version="1.1" width="500px" height="500px" style="shape-rendering:geometricPrecision; text-rendering:geometricPrecision; image-rendering:optimizeQuality; fill-rule:evenodd; clip-rule:evenodd" xmlns:xlink="http://www.w3.org/1999/xlink">
<g><path style="opacity:0.004" fill="#000000" d="M 337.5,17.5 C 338.833,18.1667 338.833,18.1667 337.5,17.5 Z"/></g>
<g><path style="opacity:0.004" fill="#000000" d="M 276.5,20.5 C 277.833,21.1667 277.833,21.1667 276.5,20.5 Z"/></g>
<g><path style="opacity:0.004" fill="#000000" d="M 13.5,29.5 C 14.8333,30.1667 14.8333,30.1667 13.5,29.5 Z"/></g>
<g><path style="opacity:0.004" fill="#000000" d="M 339.5,36.5 C 340.833,37.1667 340.833,37.1667 339.5,36.5 Z"/></g>
<g><path style="opacity:0.004" fill="#000000" d="M 394.5,42.5 C 395.833,43.1667 395.833,43.1667 394.5,42.5 Z"/></g>
<g><path style="opacity:0.004" fill="#000000" d="M 11.5,49.5 C 12.8333,50.1667 12.8333,50.1667 11.5,49.5 Z"/></g>
<g><path style="opacity:0.004" fill="#000000" d="M 172.5,57.5 C 173.833,58.1667 173.833,58.1667 172.5,57.5 Z"/></g>
<g><path style="opacity:0.004" fill="#000000" d="M 382.5,59.5 C 383.833,60.1667 383.833,60.1667 382.5,59.5 Z"/></g>
<g><path style="opacity:0.004" fill="#000000" d="M 48.5,60.5 C 49.8333,61.1667 49.8333,61.1667 48.5,60.5 Z"/></g>
<g><path style="opacity:0.004" fill="#000000" d="M 289.5,75.5 C 290.833,76.1667 290.833,76.1667 289.5,75.5 Z"/></g>
<g><path style="opacity:0.004" fill="#000000" d="M 389.5,76.5 C 390.833,77.1667 390.833,77.1667 389.5,76.5 Z"/></g>
<g><path style="opacity:0.004" fill="#000000" d="M 432.5,76.5 C 433.833,77.1667 433.833,77.1667 432.5,76.5 Z"/></g>
<g><path style="opacity:0.004" fill="#000000" d="M 81.5,81.5 C 82.8333,82.1667 82.8333,82.1667 81.5,81.5 Z"/></g>
<g><path style="opacity:0.004" fill="#000000" d="M 494.5,84.5 C 495.833,85.1667 495.833,85.1667 494.5,84.5 Z"/></g>
<g><path style="opacity:0.004" fill="#000000" d="M 273.5,89.5 C 274.833,90.1667 274.833,90.1667 273.5,89.5 Z"/></g>
<g><path style="opacity:0.004" fill="#000000" d="M 83.5,95.5 C 84.8333,96.1667 84.8333,96.1667 83.5,95.5 Z"/></g>
<g><path style="opacity:0.004" fill="#000000" d="M 371.5,108.5 C 372.833,109.167 372.833,109.167 371.5,108.5 Z"/></g>
<g><path style="opacity:0.004" fill="#000000" d="M 132.5,116.5 C 133.833,117.167 133.833,117.167 132.5,116.5 Z"/></g>
<g><path style="opacity:0.357" fill="#050505" d="M 172.5,124.5 C 169.817,125.877 167.483,127.543 165.5,129.5C 164.325,129.719 163.325,129.386 162.5,128.5C 163.074,126.941 163.74,125.441 164.5,124C 166.78,123.767 168.78,122.934 170.5,121.5C 171.425,122.357 172.092,123.357 172.5,124.5 Z"/></g>
<g><path style="opacity:0.004" fill="#000000" d="M 148.5,122.5 C 149.833,123.167 149.833,123.167 148.5,122.5 Z"/></g>
<g><path style="opacity:1" fill="#f2f5f5" d="M 172.5,124.5 C 173.167,124.5 173.833,124.5 174.5,124.5C 229.167,124.5 283.833,124.5 338.5,124.5C 338.169,154.005 338.502,183.338 339.5,212.5C 341.694,214.221 342.861,216.555 343,219.5C 343.83,248.336 343.664,277.003 342.5,305.5C 341.732,306.263 341.232,307.263 341,308.5C 340.832,278.664 340.332,248.997 339.5,219.5C 339.207,215.171 337.207,213.837 333.5,215.5C 322.964,221.597 312.63,227.93 302.5,234.5C 299.296,235.383 296.629,237.05 294.5,239.5C 285.136,244.182 275.802,248.849 266.5,253.5C 264.436,253.687 262.436,254.187 260.5,255C 257.612,256.813 254.612,258.479 251.5,260C 249.866,260.494 248.199,260.66 246.5,260.5C 248.833,259.167 251.167,257.833 253.5,256.5C 254.492,256.672 255.158,256.338 255.5,255.5C 282.346,241.159 308.846,226.159 335,210.5C 335.5,183.169 335.667,155.835 335.5,128.5C 329.794,128.171 324.128,128.505 318.5,129.5C 297.203,153.086 275.203,175.752 252.5,197.5C 251.5,197.833 250.833,198.5 250.5,199.5C 248.445,201.555 246.112,203.221 243.5,204.5C 238.758,205.723 234.925,208.39 232,212.5C 231.517,211.552 231.351,210.552 231.5,209.5C 233.027,209.573 234.027,208.906 234.5,207.5C 244.52,198.811 254.187,189.811 263.5,180.5C 264.833,179.833 265.833,178.833 266.5,177.5C 275.229,169.773 283.229,161.44 290.5,152.5C 298.535,145.466 305.868,137.799 312.5,129.5C 313.043,129.44 313.376,129.107 313.5,128.5C 297.514,127.501 281.514,127.167 265.5,127.5C 262.313,126.194 258.98,126.194 255.5,127.5C 253.364,128.472 252.197,130.139 252,132.5C 251.667,132.167 251.333,131.833 251,131.5C 250.082,133.376 248.582,134.376 246.5,134.5C 247.167,133.5 247.833,132.5 248.5,131.5C 249.627,130.878 250.627,130.045 251.5,129C 224.502,128.5 197.502,128.333 170.5,128.5C 169.668,155.997 169.168,183.664 169,211.5C 168.392,213.066 167.558,214.4 166.5,215.5C 166.774,186.817 166.441,158.15 165.5,129.5C 167.483,127.543 169.817,125.877 172.5,124.5 Z"/></g>
<g><path style="opacity:1" fill="#feb6bd" d="M 258.5,128.5 C 260.607,127.532 262.941,127.198 265.5,127.5C 281.514,127.167 297.514,127.501 313.5,128.5C 313.376,129.107 313.043,129.44 312.5,129.5C 297.676,128.504 282.676,128.171 267.5,128.5C 266.833,128.5 266.167,128.5 265.5,128.5C 263.167,128.5 260.833,128.5 258.5,128.5 Z"/></g>
<g><path style="opacity:1" fill="#f65d68" d="M 267.5,128.5 C 282.676,128.171 297.676,128.504 312.5,129.5C 305.868,137.799 298.535,145.466 290.5,152.5C 290.185,150.774 290.019,149.107 290,147.5C 291.011,148.337 292.178,148.67 293.5,148.5C 293.579,147.07 293.246,145.736 292.5,144.5C 293.631,143.396 294.465,143.729 295,145.5C 295.333,144.167 295.667,142.833 296,141.5C 296.333,141.833 296.667,142.167 297,142.5C 297.465,141.069 298.299,139.903 299.5,139C 298.667,138.167 297.833,137.333 297,136.5C 294.163,138.053 291.663,137.72 289.5,135.5C 292.215,133.449 292.048,131.783 289,130.5C 285.176,131.016 281.51,132.016 278,133.5C 275.943,132.86 273.777,133.027 271.5,134C 272.167,134.333 272.833,134.667 273.5,135C 271.866,135.494 270.199,135.66 268.5,135.5C 268.702,133.05 268.369,130.717 267.5,128.5 Z"/></g>
<g><path style="opacity:1" fill="#fa702e" d="M 265.5,129.5 C 265.183,145.578 265.516,161.578 266.5,177.5C 265.833,178.833 264.833,179.833 263.5,180.5C 263.326,172.527 262.826,172.527 262,180.5C 260.678,177.112 258.845,176.779 256.5,179.5C 255.692,179.192 255.025,178.692 254.5,178C 255.653,176.117 257.319,175.284 259.5,175.5C 259.38,173.801 259.046,172.135 258.5,170.5C 261.081,167.33 262.581,163.664 263,159.5C 263.5,152.174 263.666,144.841 263.5,137.5C 261.533,137.739 259.699,137.406 258,136.5C 258.14,134.149 258.64,131.816 259.5,129.5C 261.5,129.5 263.5,129.5 265.5,129.5 Z"/></g>
<g><path style="opacity:0.004" fill="#000000" d="M 439.5,137.5 C 440.833,138.167 440.833,138.167 439.5,137.5 Z"/></g>
<g><path style="opacity:0.004" fill="#000000" d="M 39.5,139.5 C 40.8333,140.167 40.8333,140.167 39.5,139.5 Z"/></g>
<g><path style="opacity:1" fill="#e88f52" d="M 252.5,134.5 C 248.199,140.469 243.199,145.802 237.5,150.5C 241.773,144.558 246.773,139.224 252.5,134.5 Z"/></g>
<g><path style="opacity:1" fill="#256ea4" d="M 255.5,255.5 C 253.793,236.496 252.793,217.163 252.5,197.5C 275.203,175.752 297.203,153.086 318.5,129.5C 324.128,128.505 329.794,128.171 335.5,128.5C 335.667,155.835 335.5,183.169 335,210.5C 308.846,226.159 282.346,241.159 255.5,255.5 Z"/></g>
<g><path style="opacity:1" fill="#f95b5e" d="M 265.5,128.5 C 266.167,128.5 266.833,128.5 267.5,128.5C 268.369,130.717 268.702,133.05 268.5,135.5C 270.199,135.66 271.866,135.494 273.5,135C 272.833,134.667 272.167,134.333 271.5,134C 273.777,133.027 275.943,132.86 278,133.5C 281.51,132.016 285.176,131.016 289,130.5C 292.048,131.783 292.215,133.449 289.5,135.5C 291.663,137.72 294.163,138.053 297,136.5C 297.833,137.333 298.667,138.167 299.5,139C 298.299,139.903 297.465,141.069 297,142.5C 296.667,142.167 296.333,141.833 296,141.5C 295.667,142.833 295.333,144.167 295,145.5C 294.465,143.729 293.631,143.396 292.5,144.5C 293.246,145.736 293.579,147.07 293.5,148.5C 292.178,148.67 291.011,148.337 290,147.5C 290.019,149.107 290.185,150.774 290.5,152.5C 283.229,161.44 275.229,169.773 266.5,177.5C 265.516,161.578 265.183,145.578 265.5,129.5C 265.5,129.167 265.5,128.833 265.5,128.5 Z"/></g>
<g><path style="opacity:0.004" fill="#000000" d="M 22.5,159.5 C 23.8333,160.167 23.8333,160.167 22.5,159.5 Z"/></g>
<g><path style="opacity:1" fill="#f47c28" d="M 258.5,128.5 C 260.833,128.5 263.167,128.5 265.5,128.5C 265.5,128.833 265.5,129.167 265.5,129.5C 263.5,129.5 261.5,129.5 259.5,129.5C 258.64,131.816 258.14,134.149 258,136.5C 259.699,137.406 261.533,137.739 263.5,137.5C 263.666,144.841 263.5,152.174 263,159.5C 262.581,163.664 261.081,167.33 258.5,170.5C 259.046,172.135 259.38,173.801 259.5,175.5C 257.319,175.284 255.653,176.117 254.5,178C 255.025,178.692 255.692,179.192 256.5,179.5C 258.845,176.779 260.678,177.112 262,180.5C 262.826,172.527 263.326,172.527 263.5,180.5C 254.187,189.811 244.52,198.811 234.5,207.5C 232.514,190.532 231.847,173.199 232.5,155.5C 233.833,153.5 235.5,151.833 237.5,150.5C 243.199,145.802 248.199,140.469 252.5,134.5C 253.622,131.562 255.622,129.562 258.5,128.5 Z"/></g>
<g><path style="opacity:0.004" fill="#000000" d="M 136.5,160.5 C 137.833,161.167 137.833,161.167 136.5,160.5 Z"/></g>
<g><path style="opacity:0.004" fill="#000000" d="M 412.5,160.5 C 413.833,161.167 413.833,161.167 412.5,160.5 Z"/></g>
<g><path style="opacity:1" fill="#fef8ea" d="M 265.5,127.5 C 262.941,127.198 260.607,127.532 258.5,128.5C 255.622,129.562 253.622,131.562 252.5,134.5C 246.773,139.224 241.773,144.558 237.5,150.5C 235.5,151.833 233.833,153.5 232.5,155.5C 231.503,172.659 231.17,189.992 231.5,207.5C 230.338,189.671 230.171,171.671 231,153.5C 234.785,149.894 237.952,145.894 240.5,141.5C 242.5,139.167 244.5,136.833 246.5,134.5C 248.582,134.376 250.082,133.376 251,131.5C 251.333,131.833 251.667,132.167 252,132.5C 252.197,130.139 253.364,128.472 255.5,127.5C 258.98,126.194 262.313,126.194 265.5,127.5 Z"/></g>
<g><path style="opacity:0.624" fill="#acacac" d="M 174.5,124.5 C 229.331,123.501 284.331,123.168 339.5,123.5C 339.5,153.167 339.5,182.833 339.5,212.5C 338.502,183.338 338.169,154.005 338.5,124.5C 283.833,124.5 229.167,124.5 174.5,124.5 Z"/></g>
<g><path style="opacity:0.004" fill="#000000" d="M 399.5,169.5 C 400.833,170.167 400.833,170.167 399.5,169.5 Z"/></g>
<g><path style="opacity:1" fill="#ecfcfa" d="M 170.5,128.5 C 170.333,156.835 170.5,185.169 171,213.5C 172.376,212.295 173.542,210.962 174.5,209.5C 185.828,198.339 197.328,187.339 209,176.5C 219.366,164.638 229.866,152.972 240.5,141.5C 237.952,145.894 234.785,149.894 231,153.5C 230.171,171.671 230.338,189.671 231.5,207.5C 231.5,208.167 231.5,208.833 231.5,209.5C 231.351,210.552 231.517,211.552 232,212.5C 234.925,208.39 238.758,205.723 243.5,204.5C 228.93,217.564 213.596,229.731 197.5,241C 188.667,248.5 179.833,256 171,263.5C 170.333,274.833 170.333,286.167 171,297.5C 171.308,298.308 171.808,298.975 172.5,299.5C 174.534,298.441 176.534,297.441 178.5,296.5C 177.058,297.82 176.392,299.486 176.5,301.5C 174.263,302.449 171.929,303.116 169.5,303.5C 169.167,303.5 168.833,303.5 168.5,303.5C 167.841,275.069 167.175,246.736 166.5,218.5C 165.375,217.652 165.375,216.652 166.5,215.5C 167.558,214.4 168.392,213.066 169,211.5C 169.168,183.664 169.668,155.997 170.5,128.5 Z"/></g>
<g><path style="opacity:0.004" fill="#000000" d="M 82.5,174.5 C 83.8333,175.167 83.8333,175.167 82.5,174.5 Z"/></g>
<g><path style="opacity:1" fill="#0a7a64" d="M 226.5,163.5 C 227.827,180.338 227.827,197.338 226.5,214.5C 207.181,228.083 188.681,242.75 171,258.5C 170.333,245.167 170.333,231.833 171,218.5C 179.055,210.901 187.222,203.401 195.5,196C 205.734,184.996 216.067,174.163 226.5,163.5 Z"/></g>
<g><path style="opacity:1" fill="#19a684" d="M 248.5,131.5 C 247.833,132.5 247.167,133.5 246.5,134.5C 244.5,136.833 242.5,139.167 240.5,141.5C 229.866,152.972 219.366,164.638 209,176.5C 197.328,187.339 185.828,198.339 174.5,209.5C 173.5,209.5 172.5,209.5 171.5,209.5C 171.5,182.833 171.5,156.167 171.5,129.5C 197.522,128.843 223.188,129.509 248.5,131.5 Z"/></g>
<g><path style="opacity:0.004" fill="#000000" d="M 423.5,181.5 C 424.833,182.167 424.833,182.167 423.5,181.5 Z"/></g>
<g><path style="opacity:0.004" fill="#000000" d="M 106.5,187.5 C 107.833,188.167 107.833,188.167 106.5,187.5 Z"/></g>
<g><path style="opacity:1" fill="#52a191" d="M 170.5,128.5 C 197.502,128.333 224.502,128.5 251.5,129C 250.627,130.045 249.627,130.878 248.5,131.5C 223.188,129.509 197.522,128.843 171.5,129.5C 171.5,156.167 171.5,182.833 171.5,209.5C 172.5,209.5 173.5,209.5 174.5,209.5C 173.542,210.962 172.376,212.295 171,213.5C 170.5,185.169 170.333,156.835 170.5,128.5 Z"/></g>
<g><path style="opacity:0.004" fill="#000000" d="M 62.5,190.5 C 63.8333,191.167 63.8333,191.167 62.5,190.5 Z"/></g>
<g><path style="opacity:1" fill="#f6ad7c" d="M 232.5,155.5 C 231.847,173.199 232.514,190.532 234.5,207.5C 234.027,208.906 233.027,209.573 231.5,209.5C 231.5,208.833 231.5,208.167 231.5,207.5C 231.17,189.992 231.503,172.659 232.5,155.5 Z"/></g>
<g><path style="opacity:0.004" fill="#000000" d="M 76.5,194.5 C 77.8333,195.167 77.8333,195.167 76.5,194.5 Z"/></g>
<g><path style="opacity:1" fill="#0ba5bb" d="M 250.5,199.5 C 251.222,199.918 251.722,200.584 252,201.5C 252.168,220.005 252.668,238.338 253.5,256.5C 251.167,257.833 248.833,259.167 246.5,260.5C 223.287,271.44 200.62,283.44 178.5,296.5C 176.534,297.441 174.534,298.441 172.5,299.5C 171.808,298.975 171.308,298.308 171,297.5C 170.333,286.167 170.333,274.833 171,263.5C 179.833,256 188.667,248.5 197.5,241C 213.596,229.731 228.93,217.564 243.5,204.5C 246.112,203.221 248.445,201.555 250.5,199.5 Z"/></g>
<g><path style="opacity:0.004" fill="#000000" d="M 103.5,212.5 C 104.833,213.167 104.833,213.167 103.5,212.5 Z"/></g>
<g><path style="opacity:0.004" fill="#000000" d="M 145.5,212.5 C 146.833,213.167 146.833,213.167 145.5,212.5 Z"/></g>
<g><path style="opacity:1" fill="#f99334" d="M 333.5,215.5 C 335.911,215.137 337.411,216.137 338,218.5C 338.5,249.165 338.667,279.832 338.5,310.5C 338.672,311.492 338.338,312.158 337.5,312.5C 335.429,314.322 332.929,315.322 330,315.5C 324.923,314.015 319.756,313.015 314.5,312.5C 307.528,310.011 300.861,307.011 294.5,303.5C 295.167,303.5 295.833,303.5 296.5,303.5C 298.325,282.19 299.158,260.523 299,238.5C 300.388,237.264 301.554,235.931 302.5,234.5C 312.63,227.93 322.964,221.597 333.5,215.5 Z"/></g>
<g><path style="opacity:1" fill="#ffdeb3" d="M 333.5,215.5 C 337.207,213.837 339.207,215.171 339.5,219.5C 339.831,250.005 339.498,280.338 338.5,310.5C 338.667,279.832 338.5,249.165 338,218.5C 337.411,216.137 335.911,215.137 333.5,215.5 Z"/></g>
<g><path style="opacity:0.004" fill="#000000" d="M 496.5,223.5 C 497.833,224.167 497.833,224.167 496.5,223.5 Z"/></g>
<g><path style="opacity:1" fill="#1a93b9" d="M 252.5,197.5 C 252.793,217.163 253.793,236.496 255.5,255.5C 255.158,256.338 254.492,256.672 253.5,256.5C 252.668,238.338 252.168,220.005 252,201.5C 251.722,200.584 251.222,199.918 250.5,199.5C 250.833,198.5 251.5,197.833 252.5,197.5 Z"/></g>
<g><path style="opacity:0.004" fill="#000000" d="M 491.5,232.5 C 492.833,233.167 492.833,233.167 491.5,232.5 Z"/></g>
<g><path style="opacity:0.004" fill="#000000" d="M 3.5,235.5 C 4.83333,236.167 4.83333,236.167 3.5,235.5 Z"/></g>
<g><path style="opacity:0.796" fill="#c0c1be" d="M 166.5,218.5 C 167.175,246.736 167.841,275.069 168.5,303.5C 166.827,287.624 165.827,271.457 165.5,255C 166.488,242.914 166.822,230.747 166.5,218.5 Z"/></g>
<g><path style="opacity:0.004" fill="#000000" d="M 62.5,247.5 C 63.8333,248.167 63.8333,248.167 62.5,247.5 Z"/></g>
<g><path style="opacity:1" fill="#fa694b" d="M 294.5,239.5 C 296.489,260.474 297.156,281.807 296.5,303.5C 295.833,303.5 295.167,303.5 294.5,303.5C 294.67,302.178 294.337,301.011 293.5,300C 289.586,298.717 285.586,297.884 281.5,297.5C 280.426,296.115 279.093,294.949 277.5,294C 278.551,292.615 279.884,291.615 281.5,291C 280.5,289 279.5,289 278.5,291C 270.5,292.082 264.333,289.249 260,282.5C 258.644,283.38 257.144,283.714 255.5,283.5C 255.5,282.5 255.5,281.5 255.5,280.5C 252.975,281.64 250.308,282.307 247.5,282.5C 246.833,282.5 246.5,282.167 246.5,281.5C 250.335,280.996 250.335,279.996 246.5,278.5C 247.511,274.866 247.511,271.199 246.5,267.5C 242.479,269.667 238.146,271.001 233.5,271.5C 244.948,266.277 255.948,260.277 266.5,253.5C 275.802,248.849 285.136,244.182 294.5,239.5 Z"/></g>
<g><path style="opacity:1" fill="#fc8b3e" d="M 302.5,234.5 C 301.554,235.931 300.388,237.264 299,238.5C 299.158,260.523 298.325,282.19 296.5,303.5C 297.156,281.807 296.489,260.474 294.5,239.5C 296.629,237.05 299.296,235.383 302.5,234.5 Z"/></g>
<g><path style="opacity:0.004" fill="#000000" d="M 6.5,264.5 C 7.83333,265.167 7.83333,265.167 6.5,264.5 Z"/></g>
<g><path style="opacity:0.004" fill="#000000" d="M 419.5,267.5 C 420.833,268.167 420.833,268.167 419.5,267.5 Z"/></g>
<g><path style="opacity:0.004" fill="#000000" d="M 64.5,269.5 C 65.8333,270.167 65.8333,270.167 64.5,269.5 Z"/></g>
<g><path style="opacity:0.004" fill="#000000" d="M 162.5,275.5 C 163.833,276.167 163.833,276.167 162.5,275.5 Z"/></g>
<g><path style="opacity:1" fill="#f97426" d="M 246.5,281.5 C 244.319,281.716 242.653,280.883 241.5,279C 239.527,278.505 237.527,278.338 235.5,278.5C 235.5,279.833 235.5,281.167 235.5,282.5C 233.088,282.331 230.921,282.997 229,284.5C 228.127,284.265 227.293,283.931 226.5,283.5C 225.548,285.045 225.215,286.712 225.5,288.5C 225.158,289.338 224.492,289.672 223.5,289.5C 219.414,289.282 215.747,290.115 212.5,292C 211.456,290.008 209.456,288.342 206.5,287C 208.035,286.504 209.535,286.67 211,287.5C 212.722,287.389 212.888,286.889 211.5,286C 212.448,285.517 213.448,285.351 214.5,285.5C 214.5,284.5 214.5,283.5 214.5,282.5C 218.606,281.762 221.939,279.762 224.5,276.5C 227.008,274.076 230.008,272.41 233.5,271.5C 238.146,271.001 242.479,269.667 246.5,267.5C 247.511,271.199 247.511,274.866 246.5,278.5C 250.335,279.996 250.335,280.996 246.5,281.5 Z"/></g>
<g><path style="opacity:1" fill="#f3f6ef" d="M 266.5,253.5 C 255.948,260.277 244.948,266.277 233.5,271.5C 230.008,272.41 227.008,274.076 224.5,276.5C 208.828,283.17 193.828,291.17 179.5,300.5C 178.957,300.56 178.624,300.893 178.5,301.5C 184.654,302.167 190.654,302.833 196.5,303.5C 187.504,306.101 178.504,306.101 169.5,303.5C 171.929,303.116 174.263,302.449 176.5,301.5C 176.392,299.486 177.058,297.82 178.5,296.5C 200.62,283.44 223.287,271.44 246.5,260.5C 248.199,260.66 249.866,260.494 251.5,260C 254.612,258.479 257.612,256.813 260.5,255C 262.436,254.187 264.436,253.687 266.5,253.5 Z"/></g>
<g><path style="opacity:1" fill="#eb7b3b" d="M 246.5,281.5 C 246.5,282.167 246.833,282.5 247.5,282.5C 247.5,282.833 247.5,283.167 247.5,283.5C 244.296,282.04 240.962,281.54 237.5,282C 233.318,283.923 229.318,286.089 225.5,288.5C 225.215,286.712 225.548,285.045 226.5,283.5C 227.293,283.931 228.127,284.265 229,284.5C 230.921,282.997 233.088,282.331 235.5,282.5C 235.5,281.167 235.5,279.833 235.5,278.5C 237.527,278.338 239.527,278.505 241.5,279C 242.653,280.883 244.319,281.716 246.5,281.5 Z"/></g>
<g><path style="opacity:1" fill="#f36e5c" d="M 281.5,297.5 C 270.281,292.647 258.948,287.98 247.5,283.5C 247.5,283.167 247.5,282.833 247.5,282.5C 250.308,282.307 252.975,281.64 255.5,280.5C 255.5,281.5 255.5,282.5 255.5,283.5C 257.144,283.714 258.644,283.38 260,282.5C 264.333,289.249 270.5,292.082 278.5,291C 279.5,289 280.5,289 281.5,291C 279.884,291.615 278.551,292.615 277.5,294C 279.093,294.949 280.426,296.115 281.5,297.5 Z"/></g>
<g><path style="opacity:1" fill="#f67d2e" d="M 224.5,276.5 C 221.939,279.762 218.606,281.762 214.5,282.5C 214.5,283.5 214.5,284.5 214.5,285.5C 213.448,285.351 212.448,285.517 211.5,286C 212.888,286.889 212.722,287.389 211,287.5C 209.535,286.67 208.035,286.504 206.5,287C 209.456,288.342 211.456,290.008 212.5,292C 215.747,290.115 219.414,289.282 223.5,289.5C 214.152,294.659 204.152,298.493 193.5,301C 188.648,301.815 183.981,301.648 179.5,300.5C 193.828,291.17 208.828,283.17 224.5,276.5 Z"/></g>
<g><path style="opacity:0.995" fill="#f2ebe3" d="M 339.5,219.5 C 340.332,248.997 340.832,278.664 341,308.5C 341.232,307.263 341.732,306.263 342.5,305.5C 344.549,314.553 341.049,319.886 332,321.5C 311.387,315.106 291.554,306.94 272.5,297C 261.942,292.87 251.275,289.036 240.5,285.5C 229.383,292.057 217.717,297.557 205.5,302C 202.568,302.953 199.568,303.453 196.5,303.5C 190.654,302.833 184.654,302.167 178.5,301.5C 178.624,300.893 178.957,300.56 179.5,300.5C 183.981,301.648 188.648,301.815 193.5,301C 204.152,298.493 214.152,294.659 223.5,289.5C 224.492,289.672 225.158,289.338 225.5,288.5C 229.318,286.089 233.318,283.923 237.5,282C 240.962,281.54 244.296,282.04 247.5,283.5C 258.948,287.98 270.281,292.647 281.5,297.5C 285.405,300.284 289.738,302.284 294.5,303.5C 300.861,307.011 307.528,310.011 314.5,312.5C 319.78,315.034 325.447,316.701 331.5,317.5C 334.767,317.225 336.767,315.558 337.5,312.5C 338.338,312.158 338.672,311.492 338.5,310.5C 339.498,280.338 339.831,250.005 339.5,219.5 Z"/></g>
<g><path style="opacity:0.004" fill="#000000" d="M 344.5,295.5 C 345.833,296.167 345.833,296.167 344.5,295.5 Z"/></g>
<g><path style="opacity:0.004" fill="#000000" d="M 352.5,298.5 C 353.833,299.167 353.833,299.167 352.5,298.5 Z"/></g>
<g><path style="opacity:1" fill="#f3776a" d="M 281.5,297.5 C 285.586,297.884 289.586,298.717 293.5,300C 294.337,301.011 294.67,302.178 294.5,303.5C 289.738,302.284 285.405,300.284 281.5,297.5 Z"/></g>
<g><path style="opacity:0.004" fill="#000000" d="M 435.5,303.5 C 436.833,304.167 436.833,304.167 435.5,303.5 Z"/></g>
<g><path style="opacity:1" fill="#f0a862" d="M 314.5,312.5 C 319.756,313.015 324.923,314.015 330,315.5C 332.929,315.322 335.429,314.322 337.5,312.5C 336.767,315.558 334.767,317.225 331.5,317.5C 325.447,316.701 319.78,315.034 314.5,312.5 Z"/></g>
<g><path style="opacity:0.004" fill="#000000" d="M 452.5,320.5 C 453.833,321.167 453.833,321.167 452.5,320.5 Z"/></g>
<g><path style="opacity:0.004" fill="#000000" d="M 22.5,337.5 C 23.8333,338.167 23.8333,338.167 22.5,337.5 Z"/></g>
<g><path style="opacity:0.004" fill="#000000" d="M 211.5,340.5 C 212.833,341.167 212.833,341.167 211.5,340.5 Z"/></g>
<g><path style="opacity:0.004" fill="#000000" d="M 339.5,340.5 C 340.833,341.167 340.833,341.167 339.5,340.5 Z"/></g>
<g><path style="opacity:0.004" fill="#000000" d="M 347.5,364.5 C 348.833,365.167 348.833,365.167 347.5,364.5 Z"/></g>
<g><path style="opacity:0.004" fill="#000000" d="M 495.5,365.5 C 496.833,366.167 496.833,366.167 495.5,365.5 Z"/></g>
<g><path style="opacity:0.004" fill="#000000" d="M 435.5,370.5 C 436.833,371.167 436.833,371.167 435.5,370.5 Z"/></g>
<g><path style="opacity:0.004" fill="#000000" d="M 101.5,374.5 C 102.833,375.167 102.833,375.167 101.5,374.5 Z"/></g>
<g><path style="opacity:0.004" fill="#000000" d="M 377.5,378.5 C 378.833,379.167 378.833,379.167 377.5,378.5 Z"/></g>
<g><path style="opacity:0.004" fill="#000000" d="M 346.5,380.5 C 347.833,381.167 347.833,381.167 346.5,380.5 Z"/></g>
<g><path style="opacity:0.004" fill="#000000" d="M 123.5,381.5 C 124.833,382.167 124.833,382.167 123.5,381.5 Z"/></g>
<g><path style="opacity:0.004" fill="#000000" d="M 402.5,387.5 C 403.833,388.167 403.833,388.167 402.5,387.5 Z"/></g>
<g><path style="opacity:0.004" fill="#000000" d="M 228.5,394.5 C 229.833,395.167 229.833,395.167 228.5,394.5 Z"/></g>
<g><path style="opacity:0.004" fill="#000000" d="M 144.5,400.5 C 145.833,401.167 145.833,401.167 144.5,400.5 Z"/></g>
<g><path style="opacity:0.004" fill="#000000" d="M 216.5,406.5 C 217.833,407.167 217.833,407.167 216.5,406.5 Z"/></g>
<g><path style="opacity:0.004" fill="#000000" d="M 359.5,408.5 C 360.833,409.167 360.833,409.167 359.5,408.5 Z"/></g>
<g><path style="opacity:0.004" fill="#000000" d="M 272.5,422.5 C 273.833,423.167 273.833,423.167 272.5,422.5 Z"/></g>
<g><path style="opacity:0.004" fill="#000000" d="M 207.5,425.5 C 208.833,426.167 208.833,426.167 207.5,425.5 Z"/></g>
<g><path style="opacity:0.004" fill="#000000" d="M 60.5,433.5 C 61.8333,434.167 61.8333,434.167 60.5,433.5 Z"/></g>
<g><path style="opacity:0.004" fill="#000000" d="M 467.5,434.5 C 468.833,435.167 468.833,435.167 467.5,434.5 Z"/></g>
<g><path style="opacity:0.004" fill="#000000" d="M 384.5,445.5 C 385.833,446.167 385.833,446.167 384.5,445.5 Z"/></g>
<g><path style="opacity:0.004" fill="#000000" d="M 461.5,453.5 C 462.833,454.167 462.833,454.167 461.5,453.5 Z"/></g>
<g><path style="opacity:0.004" fill="#000000" d="M 412.5,455.5 C 413.833,456.167 413.833,456.167 412.5,455.5 Z"/></g>
<g><path style="opacity:0.004" fill="#000000" d="M 297.5,457.5 C 298.833,458.167 298.833,458.167 297.5,457.5 Z"/></g>
<g><path style="opacity:0.004" fill="#000000" d="M 302.5,459.5 C 303.833,460.167 303.833,460.167 302.5,459.5 Z"/></g>
<g><path style="opacity:0.004" fill="#000000" d="M 464.5,463.5 C 465.833,464.167 465.833,464.167 464.5,463.5 Z"/></g>
<g><path style="opacity:0.004" fill="#000000" d="M 7.5,471.5 C 8.83333,472.167 8.83333,472.167 7.5,471.5 Z"/></g>
<g><path style="opacity:0.004" fill="#000000" d="M 326.5,471.5 C 327.833,472.167 327.833,472.167 326.5,471.5 Z"/></g>
<g><path style="opacity:0.004" fill="#000000" d="M 423.5,471.5 C 424.833,472.167 424.833,472.167 423.5,471.5 Z"/></g>
<g><path style="opacity:0.004" fill="#000000" d="M 463.5,476.5 C 464.833,477.167 464.833,477.167 463.5,476.5 Z"/></g>
<g><path style="opacity:0.004" fill="#000000" d="M 359.5,482.5 C 360.833,483.167 360.833,483.167 359.5,482.5 Z"/></g>
<g><path style="opacity:0.004" fill="#000000" d="M 74.5,489.5 C 75.8333,490.167 75.8333,490.167 74.5,489.5 Z"/></g>
<g><path style="opacity:0.004" fill="#000000" d="M 182.5,491.5 C 183.833,492.167 183.833,492.167 182.5,491.5 Z"/></g>
</svg>
